<?xml version="1.0" encoding="UTF-8" standalone="no"?>
<!-- Created with Inkscape (http://www.inkscape.org/) -->

<svg
   xmlns:dc="http://purl.org/dc/elements/1.1/"
   xmlns:cc="http://creativecommons.org/ns#"
   xmlns:rdf="http://www.w3.org/1999/02/22-rdf-syntax-ns#"
   xmlns:svg="http://www.w3.org/2000/svg"
   xmlns="http://www.w3.org/2000/svg"
   xmlns:xlink="http://www.w3.org/1999/xlink"
   xmlns:sodipodi="http://sodipodi.sourceforge.net/DTD/sodipodi-0.dtd"
   xmlns:inkscape="http://www.inkscape.org/namespaces/inkscape"
   width="54.784943mm"
   height="11.616502mm"
   viewBox="0 0 194.11987 41.16083"
   id="svg3591"
   version="1.1"
   inkscape:version="0.91 r13725"
   sodipodi:docname="egf-codon-horizontal.svg"
   inkscape:export-filename="/home/valentin/Documents/EGF/EGF-CODONS/egf-codons/static/imgs/logos/egf-codon-horizontal.png"
   inkscape:export-xdpi="105.86353"
   inkscape:export-ydpi="105.86353">
  <defs
     id="defs3593">
    <linearGradient
       inkscape:collect="always"
       id="linearGradient4637">
      <stop
         style="stop-color:#302db2;stop-opacity:1"
         offset="0"
         id="stop4639" />
      <stop
         style="stop-color:#7774dc;stop-opacity:1"
         offset="1"
         id="stop4641" />
    </linearGradient>
    <linearGradient
       inkscape:collect="always"
       xlink:href="#linearGradient4637"
       id="linearGradient4643-1-1"
       x1="1108.772"
       y1="118.09727"
       x2="1216.3668"
       y2="62.013294"
       gradientUnits="userSpaceOnUse"
       gradientTransform="matrix(0.29191352,0,0,0.29191352,-192.33901,279.22378)" />
  </defs>
  <sodipodi:namedview
     id="base"
     pagecolor="#ffffff"
     bordercolor="#666666"
     borderopacity="1.0"
     inkscape:pageopacity="0.0"
     inkscape:pageshadow="2"
     inkscape:zoom="1.6648469"
     inkscape:cx="554.09418"
     inkscape:cy="13.14199"
     inkscape:document-units="px"
     inkscape:current-layer="layer1"
     showgrid="false"
     fit-margin-top="1"
     fit-margin-left="1"
     fit-margin-bottom="1"
     fit-margin-right="1"
     inkscape:window-width="3759"
     inkscape:window-height="2136"
     inkscape:window-x="81"
     inkscape:window-y="24"
     inkscape:window-maximized="1" />
  <metadata
     id="metadata3596">
    <rdf:RDF>
      <cc:Work
         rdf:about="">
        <dc:format>image/svg+xml</dc:format>
        <dc:type
           rdf:resource="http://purl.org/dc/dcmitype/StillImage" />
        <dc:title></dc:title>
      </cc:Work>
    </rdf:RDF>
  </metadata>
  <g
     inkscape:label="Layer 1"
     inkscape:groupmode="layer"
     id="layer1"
     transform="translate(-124.59984,-284.93182)">
    <g
       id="g87005"
       transform="matrix(0.37634592,0,0,0.37634592,-88.719564,285.32402)">
      <g
         id="text4506-76-3"
         style="font-style:normal;font-variant:normal;font-weight:normal;font-stretch:normal;font-size:67.95172882px;line-height:500%;font-family:'Open Sans';-inkscape-font-specification:'Open Sans';letter-spacing:0px;word-spacing:0px;fill:#000000;fill-opacity:1;stroke:none;stroke-width:1px;stroke-linecap:butt;stroke-linejoin:miter;stroke-opacity:1"
         transform="translate(567.77073,-432.70774)">
        <path
           id="path3347-6"
           style="font-style:normal;font-variant:normal;font-weight:normal;font-stretch:normal;line-height:500%;font-family:Raleway;-inkscape-font-specification:Raleway;letter-spacing:19.54210854px"
           d="m 122.39563,485.74725 q 0,-4.34891 1.49494,-8.62987 1.56289,-4.34891 4.48481,-7.7465 2.92193,-3.39759 7.20288,-5.50409 4.28096,-2.17445 9.7171,-2.17445 6.45542,0 11.00818,2.92192 4.62072,2.92192 6.79517,7.61059 l -3.73734,2.31036 q -1.15518,-2.37831 -2.85397,-4.00915 -1.63084,-1.63084 -3.53349,-2.65012 -1.90265,-1.01927 -3.9412,-1.42698 -2.03856,-0.47567 -4.00916,-0.47567 -4.34891,0 -7.67854,1.76675 -3.32964,1.76674 -5.63999,4.62072 -2.24241,2.85397 -3.39759,6.45541 -1.15518,3.53349 -1.15518,7.20288 0,4.00916 1.35903,7.67855 1.42699,3.66939 3.8053,6.52337 2.44626,2.78602 5.70795,4.48481 3.32963,1.63084 7.20288,1.63084 2.03855,0 4.14506,-0.47566 2.17445,-0.54362 4.14505,-1.63084 2.03855,-1.15518 3.73735,-2.78602 1.69879,-1.6988 2.85397,-4.07711 l 3.9412,2.03855 q -1.15518,2.71807 -3.26168,4.82458 -2.10651,2.03855 -4.68867,3.46554 -2.58217,1.42698 -5.50409,2.17445 -2.85398,0.74747 -5.64,0.74747 -4.96047,0 -9.10553,-2.17446 -4.14505,-2.17445 -7.13493,-5.63999 -2.98988,-3.53349 -4.68867,-7.95035 -1.63084,-4.48482 -1.63084,-9.10553 z"
           inkscape:connector-curvature="0" />
        <path
           id="path3351-7"
           style="font-style:normal;font-variant:normal;font-weight:normal;font-stretch:normal;line-height:500%;font-family:Raleway;-inkscape-font-specification:Raleway;letter-spacing:19.54210854px"
           d="m 261.82331,510.20987 0,-48.24573 16.37636,0 q 5.7759,0 10.05686,1.90265 4.34891,1.90265 7.20288,5.16433 2.92193,3.26168 4.34891,7.67855 1.49494,4.34891 1.49494,9.30938 0,5.50409 -1.63084,9.98891 -1.63084,4.41686 -4.68867,7.61059 -2.98987,3.12578 -7.27083,4.89253 -4.21301,1.69879 -9.51325,1.69879 l -16.37636,0 z m 34.72333,-24.19082 q 0,-4.34891 -1.22313,-7.95035 -1.22313,-3.66939 -3.60144,-6.31951 -2.31036,-2.65012 -5.70795,-4.0771 -3.39758,-1.49494 -7.81445,-1.49494 l -11.61974,0 0,39.81971 11.61974,0 q 4.48482,0 7.88241,-1.49494 3.46553,-1.56289 5.77589,-4.213 2.31036,-2.71807 3.46554,-6.31951 1.22313,-3.6694 1.22313,-7.95036 z"
           inkscape:connector-curvature="0" />
        <path
           id="path3355-5"
           style="font-style:normal;font-variant:normal;font-weight:normal;font-stretch:normal;line-height:500%;font-family:Raleway;-inkscape-font-specification:Raleway;letter-spacing:19.54210854px"
           d="m 405.33554,470.79787 0,39.412 -4.75662,0 0,-48.24573 3.6694,0 31.93731,40.15947 0,-40.09152 4.75662,0 0,48.17778 -4.14506,0 -31.46165,-39.412 z"
           inkscape:connector-curvature="0" />
        <path
           id="path3357-3"
           style="font-style:normal;font-variant:normal;font-weight:normal;font-stretch:normal;line-height:500%;font-family:Raleway;-inkscape-font-specification:Raleway;letter-spacing:19.54210854px"
           d="m 500.74468,471.00172 q -2.03855,-2.31036 -5.43614,-3.73734 -3.39758,-1.42699 -7.74649,-1.42699 -6.38747,0 -9.30939,2.44626 -2.92193,2.37831 -2.92193,6.52337 0,2.17445 0.74747,3.60144 0.81542,1.35903 2.44627,2.37831 1.63084,1.01928 4.14505,1.76675 2.58217,0.74746 6.0477,1.49493 3.87325,0.81542 6.93108,1.8347 3.12578,1.01928 5.30024,2.58217 2.17445,1.49493 3.32963,3.66939 1.15518,2.17445 1.15518,5.43614 0,3.32963 -1.29108,5.77589 -1.29109,2.44627 -3.60144,4.07711 -2.31036,1.63084 -5.50409,2.44626 -3.19374,0.74747 -6.99903,0.74747 -11.21204,0 -19.36625,-6.99903 l 2.37832,-3.87325 q 1.29108,1.35904 3.05782,2.58217 1.8347,1.22313 4.00915,2.17445 2.24241,0.88338 4.75663,1.42699 2.51421,0.47566 5.30023,0.47566 5.7759,0 8.96963,-2.03855 3.26168,-2.1065 3.26168,-6.31951 0,-2.24241 -0.95132,-3.73735 -0.88337,-1.56288 -2.71807,-2.65011 -1.8347,-1.15518 -4.55277,-1.9706 -2.71807,-0.81542 -6.31951,-1.63084 -3.80529,-0.88338 -6.65927,-1.8347 -2.85397,-0.95133 -4.82457,-2.37831 -1.9706,-1.42699 -2.98988,-3.39759 -0.95132,-2.03855 -0.95132,-4.96047 0,-3.32964 1.22313,-5.9118 1.29108,-2.65012 3.60144,-4.34892 2.31036,-1.76674 5.43614,-2.65011 3.12578,-0.95133 6.93108,-0.95133 4.82457,0 8.56191,1.49494 3.8053,1.42699 6.86313,4.07711 l -2.31036,3.80529 z"
           inkscape:connector-curvature="0" />
      </g>
      <g
         transform="matrix(0.57257733,0,0,0.57257733,182.55021,-61.736793)"
         id="g4599-6-5">
        <path
           style="fill:#000000;fill-opacity:1"
           d="m 1297.1235,241.18193 c -11.596,4.89073 -24.3662,4.66275 -35.6428,-0.63619 -5.8035,-2.72707 -10.8663,-6.73236 -15.221,-12.0415 -1.708,-2.0822 -5.4572,-8.57587 -6.4064,-11.096 -4.4039,-11.69155 -3.8703,-23.9227 1.5208,-34.86333 2.8118,-5.7059 6.619,-10.39947 12.052,-14.85749 2.0642,-1.69386 7.8214,-5.01346 10.5153,-6.06328 5.4324,-2.11693 11.02,-3.14289 16.6479,-3.05686 12.9738,0.19845 24.9695,6.10393 33.204,16.34629 1.2114,1.50657 1.8661,2.50132 3.4353,5.21937 1.5694,2.71799 2.1034,3.78232 2.8026,5.58464 4.7543,12.2565 3.8712,25.59018 -2.4459,36.92879 -2.7115,4.86683 -6.4594,9.27868 -10.9045,12.83598 -1.9797,1.58436 -7.2449,4.72424 -9.5573,5.69958 z m 5.1569,-11.2409 c 6.7387,-5.33509 11.2298,-12.59636 12.9793,-20.98498 0.2341,-1.12282 0.4,-2.08734 0.3686,-2.14331 -0.033,-0.0557 -5.018,2.73543 -11.0814,6.2031 l -11.024,6.30489 -0.9599,-0.0297 c -2.4524,-0.0761 -3.907,-2.48121 -2.8438,-4.70235 l 0.3103,-0.64823 12.9545,-7.57672 12.9547,-7.57666 -0.19,-1.6299 c -0.3407,-2.92172 -1.4523,-7.04974 -2.5978,-9.64563 l -0.4237,-0.96038 -9.4929,5.42042 c -10.6136,6.06037 -10.0184,5.79214 -11.6686,5.25789 -1.8652,-0.60382 -2.6793,-2.62924 -1.7973,-4.47185 l 0.3102,-0.64824 9.6745,-5.63827 9.6744,-5.63825 -0.6239,-0.85245 c -1.6797,-2.29562 -4.6961,-5.32037 -7.0583,-7.07779 l -1.3166,-0.97954 -15.5215,8.86405 -15.5214,8.86401 -0.7902,-0.1017 c -2.1063,-0.27116 -3.3692,-2.03273 -2.9292,-4.08585 0.1083,-0.50406 0.3748,-1.06221 0.6342,-1.32624 0.2873,-0.29279 5.2139,-3.20809 13.7695,-8.14845 7.3272,-4.23089 13.2932,-7.74153 13.2577,-7.80144 -0.035,-0.0602 -0.9556,-0.40222 -2.0452,-0.76084 -7.821,-2.57427 -15.9973,-2.42857 -23.9396,0.42657 -1.9732,0.70938 -6.8438,3.35423 -8.6737,4.71012 -7.3573,5.45139 -12.4515,13.53262 -14.0954,22.36096 l -0.3047,1.63588 6.5881,-3.70628 6.588,-3.70627 0.9144,0.007 c 1.2623,0.01 2.4869,0.81315 2.9761,1.95236 0.4113,0.95761 0.4024,1.93789 -0.025,2.82373 l -0.322,0.66612 -8.4873,4.90006 -8.4871,4.90007 0.1151,1.13319 c 0.3484,3.4123 1.1699,6.50734 2.8029,10.56126 l 0.2691,0.66803 17.0695,-9.80254 c 19.0222,-10.92387 17.4169,-10.11547 19.0134,-9.57455 2.1999,0.74528 2.8596,3.38746 1.292,5.17407 -0.2924,0.33313 -4.9082,3.05814 -17.2422,10.17914 l -16.843,9.72431 0.4462,0.5697 c 2.6986,3.44599 4.9653,5.70205 7.7471,7.71061 l 0.9236,0.66681 10.4656,-6.04229 c 11.5861,-6.68934 11.4968,-6.64612 12.891,-6.23135 1.0475,0.31169 1.4535,0.61998 1.951,1.48153 0.5496,0.95188 0.5804,2.23368 0.076,3.17622 l -0.3518,0.65807 -9.0707,5.29256 -9.0706,5.2926 0.5826,0.26612 c 0.9879,0.45112 4.666,1.46946 6.5364,1.80972 6.6147,1.20317 13.7364,0.44357 20.111,-2.14503 2.3664,-0.96102 6.4492,-3.35966 8.5516,-5.02417 z"
           id="path4488-2-37-6"
           inkscape:connector-curvature="0" />
      </g>
      <g
         transform="matrix(0.57257733,0,0,0.57257733,41.624451,-26.645413)"
         id="g4599-5-4-2">
        <path
           style="fill:#000000;fill-opacity:1"
           d="m 1303.9423,179.81316 c -11.596,4.89073 -24.3662,4.66275 -35.6428,-0.63619 -5.8035,-2.72707 -10.8663,-6.73236 -15.221,-12.0415 -1.708,-2.0822 -5.4572,-8.57587 -6.4064,-11.096 -4.4039,-11.69155 -3.8703,-23.9227 1.5208,-34.86333 2.8118,-5.7059 6.619,-10.39947 12.052,-14.85749 2.0642,-1.69386 7.8214,-5.01346 10.5153,-6.06328 5.4324,-2.116927 11.02,-3.142887 16.6479,-3.056857 12.9738,0.19845 24.9695,6.103927 33.204,16.346287 1.2114,1.50657 1.8661,2.50132 3.4353,5.21937 1.5694,2.71799 2.1034,3.78232 2.8026,5.58464 4.7543,12.2565 3.8712,25.59018 -2.4459,36.92879 -2.7115,4.86683 -6.4594,9.27868 -10.9045,12.83598 -1.9797,1.58436 -7.2449,4.72424 -9.5573,5.69958 z m 5.1569,-11.2409 c 6.7387,-5.33509 11.2298,-12.59636 12.9793,-20.98498 0.2341,-1.12282 0.4,-2.08734 0.3686,-2.14331 -0.033,-0.0557 -5.018,2.73543 -11.0814,6.2031 l -11.024,6.30489 -0.9599,-0.0297 c -2.4524,-0.0761 -3.907,-2.48121 -2.8438,-4.70235 l 0.3103,-0.64823 12.9545,-7.57672 12.9547,-7.57666 -0.19,-1.6299 c -0.3407,-2.92172 -1.4523,-7.04974 -2.5978,-9.64563 l -0.4237,-0.96038 -9.4929,5.42042 c -10.6136,6.06037 -10.0184,5.79214 -11.6686,5.25789 -1.8652,-0.60382 -2.6793,-2.62924 -1.7973,-4.47185 l 0.3102,-0.64824 9.6745,-5.63827 9.6744,-5.63825 -0.6239,-0.85245 c -1.6797,-2.29562 -4.6961,-5.32037 -7.0583,-7.07779 l -1.3166,-0.97954 -15.5215,8.86405 -15.5214,8.86401 -0.7902,-0.1017 c -2.1063,-0.27116 -3.3692,-2.03273 -2.9292,-4.08585 0.1083,-0.50406 0.3748,-1.06221 0.6342,-1.32624 0.2873,-0.29279 5.2139,-3.20809 13.7695,-8.14845 7.3272,-4.23089 13.2932,-7.74153 13.2577,-7.80144 -0.035,-0.0602 -0.9556,-0.40222 -2.0452,-0.76084 -7.821,-2.57427 -15.9973,-2.42857 -23.9396,0.42657 -1.9732,0.70938 -6.8438,3.35423 -8.6737,4.71012 -7.3573,5.45139 -12.4515,13.53262 -14.0954,22.36096 l -0.3047,1.63588 6.5881,-3.70628 6.588,-3.70627 0.9144,0.007 c 1.2623,0.01 2.4869,0.81315 2.9761,1.95236 0.4113,0.95761 0.4024,1.93789 -0.025,2.82373 l -0.322,0.66612 -8.4873,4.90006 -8.4871,4.90007 0.1151,1.13319 c 0.3484,3.4123 1.1699,6.50734 2.8029,10.56126 l 0.2691,0.66803 17.0695,-9.80254 c 19.0222,-10.92387 17.4169,-10.11547 19.0134,-9.57455 2.1999,0.74528 2.8596,3.38746 1.292,5.17407 -0.2924,0.33313 -4.9082,3.05814 -17.2422,10.17914 l -16.843,9.72431 0.4462,0.5697 c 2.6986,3.44599 4.9653,5.70205 7.7471,7.71061 l 0.9236,0.66681 10.4656,-6.04229 c 11.5861,-6.68934 11.4968,-6.64612 12.891,-6.23135 1.0475,0.31169 1.4535,0.61998 1.951,1.48153 0.5496,0.95188 0.5804,2.23368 0.076,3.17622 l -0.3518,0.65807 -9.0707,5.29256 -9.0706,5.2926 0.5826,0.26612 c 0.9879,0.45112 4.666,1.46946 6.5364,1.80972 6.6147,1.20317 13.7364,0.44357 20.111,-2.14503 2.3664,-0.96102 6.4492,-3.35966 8.5516,-5.02417 z"
           id="path4488-2-3-2-9"
           inkscape:connector-curvature="0" />
      </g>
    </g>
    <path
       style="fill:url(#linearGradient4643-1-1);fill-opacity:1"
       d="m 143.27876,322.4389 c -3.83992,-0.4023 -7.43577,-2.16294 -10.23446,-5.01106 -2.88393,-2.93494 -4.51592,-6.57386 -4.85654,-10.82907 -0.27066,-3.38177 0.70194,-7.2061 2.60078,-10.22653 1.89607,-3.01598 4.8267,-5.45558 8.12943,-6.76733 0.86651,-0.34416 2.54012,-0.82582 2.71495,-0.78136 0.0824,0.0209 0.12822,0.003 0.10182,-0.0394 -0.0266,-0.0427 0.0422,-0.0775 0.15197,-0.0775 0.13256,0 0.38559,0.18731 0.75078,0.5558 l 0.55086,0.55578 1.14301,0 1.143,0 0.43499,-0.38052 c 0.23924,-0.20929 0.47265,-0.35725 0.51868,-0.32882 0.046,0.0284 0.06,0.0134 0.0308,-0.0334 -0.0289,-0.0468 0.0709,-0.20109 0.22194,-0.34276 l 0.27451,-0.25761 0.81235,0.11897 c 2.76993,0.40567 5.6082,1.63491 7.95034,3.44331 1.49956,1.15779 3.15909,3.04892 4.17844,4.7616 0.78476,1.31857 1.51878,3.16155 1.88516,4.73365 0.53093,2.27776 0.62688,4.01333 0.34023,6.15645 -0.58491,4.3739 -2.87728,8.4407 -6.27387,11.13013 -1.87168,1.48207 -3.64897,2.39624 -5.9854,3.07881 -1.1403,0.33313 -1.50464,0.40242 -2.86449,0.54477 -1.36784,0.14318 -2.32602,0.14221 -3.71949,-0.004 z m -2.10321,-8.1787 c 0.12252,-0.35152 0.11997,-1.03341 -0.005,-1.30744 l -0.0987,-0.21667 -2.87261,-0.0225 -2.87264,-0.0226 -0.028,-1.68875 -0.028,-1.68875 2.02801,0 c 2.36354,0 2.25348,0.043 2.25778,-0.88206 0.005,-0.97306 0.14942,-0.91357 -2.22506,-0.91357 l -2.05078,0 0.0228,-1.90251 0.0233,-1.90251 2.03047,0 2.03047,0 0.036,-0.92024 0.036,-0.92024 -3.13552,0.0224 -3.1355,0.0224 -0.0222,6.1992 c -0.0123,3.40956 -0.005,6.2473 0.0193,6.30608 0.0318,0.0834 0.90511,0.10689 3.96839,0.10689 l 3.92761,0 0.0939,-0.26928 z m 12.2156,-2.36004 0.0228,-2.58656 1.9977,0 c 1.49522,0 2.01931,-0.0269 2.0838,-0.10689 0.21366,-0.26522 0.2249,-1.27191 0.0178,-1.60733 -0.0622,-0.10089 -0.45791,-0.13218 -2.11063,-0.16692 l -2.034,-0.0428 0,-1.83838 0,-1.83839 2.86439,-0.0218 c 2.57143,-0.0196 2.87547,-0.0366 2.97133,-0.16597 0.12681,-0.1709 0.14237,-1.11877 0.0239,-1.43123 l -0.0833,-0.21933 -3.38162,0 -3.38164,0 0.0581,0.6968 c 0.0711,0.8528 0.007,0.92781 -0.79724,0.92781 l -0.5395,0 0,5.45815 c 0,3.00199 0.0269,5.4849 0.0595,5.51759 0.0327,0.0327 0.54253,0.0487 1.13292,0.0356 l 1.07357,-0.0238 0.0228,-2.58656 z m -8.74255,-0.19514 c 0.0298,-0.0485 0.92687,-0.66846 1.99309,-1.37759 1.06615,-0.70914 1.99103,-1.33898 2.05525,-1.39966 0.1426,-0.13472 0.16785,-0.0916 -1.56632,-2.67148 -1.14529,-1.70378 -1.30296,-1.90205 -1.51243,-1.90205 -0.31437,0 -1.34833,0.66604 -1.40893,0.90761 -0.0346,0.13704 0.0951,0.40046 0.47306,0.96259 0.28615,0.42566 0.52033,0.81805 0.52033,0.87198 0,0.13946 -0.35428,0.0403 -1.08946,-0.30476 -0.71562,-0.33591 -1.45181,-1.03014 -1.78067,-1.67914 -0.69075,-1.36309 -0.6051,-3.0176 0.21899,-4.23078 0.18818,-0.27695 0.34219,-0.52759 0.34227,-0.55699 0,-0.0294 -0.1144,-0.0764 -0.25445,-0.10438 -0.19637,-0.0393 -0.32841,-0.17053 -0.57712,-0.57378 -0.1774,-0.28757 -0.36268,-0.58022 -0.41169,-0.65035 -0.12774,-0.18271 -0.7991,0.69448 -1.23333,1.61142 -0.80305,1.69587 -0.79175,3.49302 0.0322,5.15742 0.79144,1.59831 2.0539,2.70355 3.70573,3.24429 0.24689,0.0808 0.44885,0.17607 0.44885,0.21164 0,0.0356 -0.3078,0.26727 -0.68405,0.51487 -0.83215,0.54763 -0.85057,0.64318 -0.28411,1.47216 0.35674,0.52213 0.42989,0.58524 0.67892,0.58524 0.15358,0 0.30372,-0.0397 0.33373,-0.0883 z m 7.33753,-9.10367 c -0.0836,-2.50067 -2.28655,-4.97047 -4.84807,-5.43541 -0.73235,-0.13292 -1.89403,-0.11289 -2.57205,0.0443 -0.95494,0.22147 -0.91713,0.15585 -0.67803,1.17785 0.26281,1.1231 0.26603,1.13124 0.39649,1.02669 0.21428,-0.17162 1.08933,-0.36198 1.66405,-0.36198 1.75416,0 3.30034,1.12625 3.87074,2.81952 0.0945,0.28041 0.17176,0.6393 0.17176,0.79755 0,0.15824 0.0271,0.31456 0.0597,0.34737 0.0327,0.0328 0.48492,0.0488 1.00465,0.0356 l 0.94514,-0.0241 -0.0143,-0.42753 z m -8.34568,-3.01183 c 0.11279,-0.17113 0.0989,-0.30218 -0.13954,-1.31156 -0.14569,-0.61678 -0.26488,-1.19023 -0.26488,-1.27434 0,-0.14009 0.45992,-0.51387 1.51147,-1.22842 l 0.35642,-0.24216 0.79754,0.18549 c 0.43865,0.10202 0.84336,0.19928 0.8993,0.21613 0.056,0.0169 0.11369,0.19268 0.12832,0.39072 l 0.0266,0.36008 0.59855,0.14566 c 0.32924,0.0801 0.70974,0.1906 0.84554,0.24552 0.13585,0.0549 0.25899,0.0879 0.27364,0.0732 0.0149,-0.0147 0.14097,-0.54057 0.28074,-1.16873 0.28857,-1.29725 0.2724,-1.42514 -0.21798,-1.72155 -0.17979,-0.10867 -0.64974,-0.40812 -1.04431,-0.66546 -0.58369,-0.38063 -0.74317,-0.44969 -0.85508,-0.37031 -0.3235,0.2294 -0.73341,0.33813 -2.12905,0.56481 -0.91287,0.14826 -1.60623,0.21967 -1.81246,0.18669 -0.35877,-0.0574 -0.34146,-0.0746 -1.28372,1.2749 -0.77129,1.10456 -0.84188,1.24183 -0.76913,1.4954 0.0753,0.26253 1.47556,2.75408 1.69044,3.00788 0.24469,0.28899 0.87014,0.1964 1.1077,-0.16397 z m 1.03775,-6.09315 c 1.63286,-0.26132 1.97841,-0.38517 1.97759,-0.70883 0,-0.37013 -0.18139,-0.83493 -0.37304,-0.96046 -0.17126,-0.11222 -0.30857,-0.11249 -1.1715,-0.002 -1.43168,0.18297 -2.27958,0.34729 -2.42817,0.47062 -0.24772,0.2056 -0.12575,1.25721 0.15913,1.37237 0.23738,0.0959 0.0638,0.11213 1.83599,-0.17149 z m -0.0621,-1.8922 c 0.72234,-0.10377 1.32284,-0.19522 1.33446,-0.20322 0.0114,-0.008 -0.0431,-0.33437 -0.12148,-0.72527 l -0.14255,-0.71069 -1.28121,0.051 c -0.70468,0.028 -1.30775,0.0816 -1.34009,0.11897 -0.0597,0.0689 -0.25835,1.30161 -0.25733,1.59645 0,0.13111 0.0455,0.15131 0.24775,0.1109 0.13592,-0.0272 0.83809,-0.13433 1.56045,-0.2381 z"
       id="path4635-4-0"
       inkscape:connector-curvature="0" />
  </g>
</svg>
