<?xml version="1.0" encoding="UTF-8" standalone="no"?>
<svg
   xmlns:dc="http://purl.org/dc/elements/1.1/"
   xmlns:cc="http://creativecommons.org/ns#"
   xmlns:rdf="http://www.w3.org/1999/02/22-rdf-syntax-ns#"
   xmlns:svg="http://www.w3.org/2000/svg"
   xmlns="http://www.w3.org/2000/svg"
   xmlns:sodipodi="http://sodipodi.sourceforge.net/DTD/sodipodi-0.dtd"
   xmlns:inkscape="http://www.inkscape.org/namespaces/inkscape"
   width="13.951606"
   height="11.445539"
   viewBox="0 0 13.951606 11.445539"
   version="1.1"
   id="svg2"
   inkscape:version="0.91 r13725"
   sodipodi:docname="email.svg">
  <metadata
     id="metadata15">
    <rdf:RDF>
      <cc:Work
         rdf:about="">
        <dc:format>image/svg+xml</dc:format>
        <dc:type
           rdf:resource="http://purl.org/dc/dcmitype/StillImage" />
        <dc:title>repo</dc:title>
      </cc:Work>
    </rdf:RDF>
  </metadata>
  <sodipodi:namedview
     pagecolor="#ffffff"
     bordercolor="#666666"
     borderopacity="1"
     objecttolerance="10"
     gridtolerance="10"
     guidetolerance="10"
     inkscape:pageopacity="0"
     inkscape:pageshadow="2"
     inkscape:window-width="2864"
     inkscape:window-height="1643"
     id="namedview13"
     showgrid="false"
     inkscape:zoom="10.429825"
     inkscape:cx="14.99867"
     inkscape:cy="-3.2204337"
     inkscape:window-x="81"
     inkscape:window-y="24"
     inkscape:window-maximized="0"
     inkscape:current-layer="svg2"
     fit-margin-top="0.1"
     fit-margin-left="0.1"
     fit-margin-bottom="0.1"
     fit-margin-right="0.1" />
  <!-- Generator: Sketch 40.3 (33839) - http://www.bohemiancoding.com/sketch -->
  <title
     id="title4">repo</title>
  <desc
     id="desc6">Created with Sketch.</desc>
  <defs
     id="defs8" />
  <path
     style="fill:#000000"
     d="M 1.5159963,10.826645 C 1.0472239,10.734584 0.671934,10.334061 0.60250645,9.851738 0.57110821,9.6336115 0.56470161,4.0025622 0.59584709,4.0025622 c 0.0113451,0 0.0728986,0.053904 0.1367832,0.119786 C 0.90520341,4.3003122 1.1987778,4.5218571 1.8518741,4.9669797 3.0161977,5.7605303 3.9646189,6.420336 4.7699488,6.9970501 5.3823246,7.435586 5.6726599,7.6261665 5.9136986,7.7478286 6.7915289,8.190903 7.2830264,8.1921014 8.170025,7.7533338 8.3988115,7.6401605 8.6643836,7.4684029 9.1600857,7.113015 9.9154391,6.571474 11.163054,5.70317 12.16935,5.0186506 c 0.790846,-0.537959 0.922131,-0.6354727 1.152901,-0.856327 l 0.175866,-0.1683081 0,2.9456589 c 0,2.8667511 -0.0014,2.9501535 -0.05183,3.1134596 -0.118597,0.383972 -0.476379,0.697933 -0.883279,0.7751 -0.17437,0.03307 -10.8783853,0.03153 -11.0470182,-0.0016 z M 6.7574216,7.1167542 C 6.4829372,7.0394311 6.130446,6.8368707 5.5512978,6.4236474 5.3576894,6.2855078 4.4197379,5.6301886 3.4669588,4.9673829 2.5141816,4.3045789 1.6818757,3.7200072 1.6173913,3.668339 1.1858844,3.3225843 0.7317573,2.6995976 0.6275304,2.310412 0.58821249,2.1635962 0.58922466,1.7823927 0.62936547,1.6158227 0.7445862,1.1378119 1.0723448,0.8007799 1.4984089,0.72219083 1.7056743,0.68396012 12.360059,0.68178111 12.561209,0.71992873 c 0.214275,0.0406348 0.402904,0.14011853 0.572612,0.30199357 0.263891,0.2517082 0.36429,0.4881145 0.36429,0.8577813 0,0.426528 -0.175778,0.8611327 -0.523647,1.2946988 -0.308958,0.3850689 -0.24012,0.3335487 -3.0327569,2.269782 C 9.4258346,5.8018567 8.8249367,6.2224158 8.6063805,6.3787589 8.1207703,6.7261376 7.7279871,6.9666869 7.4896836,7.0626499 7.2680621,7.1518956 6.9623445,7.1744832 6.7574117,7.1167534 Z"
     id="path86981"
     inkscape:connector-curvature="0" />
</svg>
