<?xml version="1.0" encoding="UTF-8" standalone="no"?>
<svg
   xmlns:dc="http://purl.org/dc/elements/1.1/"
   xmlns:cc="http://creativecommons.org/ns#"
   xmlns:rdf="http://www.w3.org/1999/02/22-rdf-syntax-ns#"
   xmlns:svg="http://www.w3.org/2000/svg"
   xmlns="http://www.w3.org/2000/svg"
   xmlns:sodipodi="http://sodipodi.sourceforge.net/DTD/sodipodi-0.dtd"
   xmlns:inkscape="http://www.inkscape.org/namespaces/inkscape"
   width="13.951606"
   height="11.445539"
   viewBox="0 0 13.951606 11.445539"
   version="1.1"
   id="svg2"
   inkscape:version="0.91 r13725"
   sodipodi:docname="twitter.svg">
  <metadata
     id="metadata15">
    <rdf:RDF>
      <cc:Work
         rdf:about="">
        <dc:format>image/svg+xml</dc:format>
        <dc:type
           rdf:resource="http://purl.org/dc/dcmitype/StillImage" />
        <dc:title>repo</dc:title>
      </cc:Work>
    </rdf:RDF>
  </metadata>
  <sodipodi:namedview
     pagecolor="#ffffff"
     bordercolor="#666666"
     borderopacity="1"
     objecttolerance="10"
     gridtolerance="10"
     guidetolerance="10"
     inkscape:pageopacity="0"
     inkscape:pageshadow="2"
     inkscape:window-width="2864"
     inkscape:window-height="1643"
     id="namedview13"
     showgrid="false"
     inkscape:zoom="14.75"
     inkscape:cx="-26.987288"
     inkscape:cy="39.964307"
     inkscape:window-x="81"
     inkscape:window-y="24"
     inkscape:window-maximized="0"
     inkscape:current-layer="svg2"
     fit-margin-top="0.1"
     fit-margin-left="0.1"
     fit-margin-bottom="0.1"
     fit-margin-right="0.1" />
  <!-- Generator: Sketch 40.3 (33839) - http://www.bohemiancoding.com/sketch -->
  <title
     id="title4">repo</title>
  <desc
     id="desc6">Created with Sketch.</desc>
  <defs
     id="defs8" />
  <path
     style="fill:#000000"
     d="M 4.0987618,11.33273 C 3.0614977,11.298411 1.9022933,11.007897 0.93070177,10.538754 0.60612115,10.382015 0.08102443,10.088868 0.10052823,10.075271 c 0.004139,-0.0029 0.12676027,0.0042 0.27262577,0.01551 1.0970131,0.08599 2.3494098,-0.2209523 3.3276174,-0.815528 0.2249376,-0.1367083 0.5359792,-0.3582807 0.5364985,-0.3821527 2.274e-4,-0.010406 -0.049256,-0.018859 -0.1099367,-0.018859 -0.060704,0 -0.2056069,-0.016789 -0.3220427,-0.037086 C 3.1138324,8.7160381 2.4708967,8.3129959 2.0346123,7.7271217 1.8890385,7.5316195 1.6814982,7.1403746 1.6464992,6.9954227 l -0.017574,-0.072819 0.1462458,0.018347 c 0.2400819,0.030005 0.6977929,0.017571 0.8968719,-0.024287 0.1024167,-0.021448 0.190489,-0.043437 0.1957091,-0.048657 0.00517,-0.00512 -0.04954,-0.022223 -0.1216429,-0.037607 C 2.5676117,6.7921169 2.2841472,6.6760558 2.0611349,6.5499573 1.3276583,6.135212 0.80904317,5.3973806 0.66321344,4.5611343 0.62147699,4.3218281 0.61385332,4.075159 0.6482246,4.075159 c 0.012406,0 0.0947399,0.03357 0.1831237,0.074584 0.2105946,0.097764 0.5466262,0.1931502 0.8049091,0.2285293 0.195606,0.026774 0.2738457,0.019123 0.2100005,-0.020416 C 1.830752,4.3482939 1.7264497,4.2622108 1.6147043,4.1667725 1.1337916,3.756096 0.82386411,3.2028796 0.68670224,2.5103096 0.63710945,2.2599425 0.64987582,1.6829635 0.71021933,1.4443703 0.78932493,1.1318248 0.98491779,0.63992609 1.0300965,0.63992609 c 0.00956,0 0.078485,0.0710421 0.1530423,0.15787519 1.17348,1.36674692 2.8879501,2.34933482 4.633238,2.65537572 0.326984,0.057346 0.8046072,0.1167331 0.9387194,0.1167331 l 0.1152342,0 -0.016282,-0.082104 C 6.817869,3.3045537 6.8083328,2.7100556 6.8382849,2.5051929 7.0025691,1.3816286 7.8746599,0.43470152 8.9862046,0.17294796 9.8886074,-0.03955936 10.881653,0.2206025 11.548249,0.84418155 l 0.161906,0.15144017 0.210362,-0.052669 C 12.405505,0.8215428 12.88349,0.6390646 13.288272,0.42083585 13.399624,0.36080265 13.493879,0.31480176 13.497704,0.318653 c 0.01246,0.012406 -0.177129,0.432894 -0.253287,0.56238282 -0.17749,0.30178448 -0.464582,0.61531978 -0.778876,0.85060248 -0.09375,0.07019 -0.170487,0.1298094 -0.170487,0.1324707 0,0.00956 0.39612,-0.058921 0.568315,-0.098384 0.237834,-0.054529 0.565742,-0.1562469 0.792522,-0.2458965 0.102466,-0.040496 0.190257,-0.069699 0.195089,-0.064865 0.01421,0.014214 -0.216073,0.3201925 -0.424688,0.5641119 -0.200465,0.2343962 -0.488394,0.5070014 -0.78394,0.7422324 l -0.170487,0.135701 0,0.4439574 c 0,1.329124 -0.395958,2.7812905 -1.085754,3.9819759 -0.822259,1.4312602 -1.9475011,2.5049833 -3.3470895,3.1938499 -0.7470365,0.367685 -1.4419838,0.585425 -2.2875727,0.716743 -0.3727417,0.0579 -1.1790932,0.122709 -1.3748901,0.11051 -0.041685,-0.0026 -0.1667135,-0.0077 -0.2778436,-0.01134 z"
     id="path86949"
     inkscape:connector-curvature="0" />
</svg>
