<?xml version="1.0" encoding="UTF-8" standalone="no"?>
<!-- Created with Inkscape (http://www.inkscape.org/) -->

<svg
   xmlns:dc="http://purl.org/dc/elements/1.1/"
   xmlns:cc="http://creativecommons.org/ns#"
   xmlns:rdf="http://www.w3.org/1999/02/22-rdf-syntax-ns#"
   xmlns:svg="http://www.w3.org/2000/svg"
   xmlns="http://www.w3.org/2000/svg"
   xmlns:sodipodi="http://sodipodi.sourceforge.net/DTD/sodipodi-0.dtd"
   xmlns:inkscape="http://www.inkscape.org/namespaces/inkscape"
   width="13.921907mm"
   height="13.918021mm"
   viewBox="0 0 13.921907 13.918021"
   version="1.1"
   id="svg83638"
   inkscape:version="0.92.3 (2405546, 2018-03-11)"
   sodipodi:docname="favicon.svg">
  <defs
     id="defs83632" />
  <sodipodi:namedview
     id="base"
     pagecolor="#ffffff"
     bordercolor="#666666"
     borderopacity="1.0"
     inkscape:pageopacity="0.0"
     inkscape:pageshadow="2"
     inkscape:zoom="2.8"
     inkscape:cx="-41.189768"
     inkscape:cy="-60.829033"
     inkscape:document-units="mm"
     inkscape:current-layer="layer1"
     showgrid="false"
     inkscape:window-width="3773"
     inkscape:window-height="2099"
     inkscape:window-x="67"
     inkscape:window-y="33"
     inkscape:window-maximized="1" />
  <metadata
     id="metadata83635">
    <rdf:RDF>
      <cc:Work
         rdf:about="">
        <dc:format>image/svg+xml</dc:format>
        <dc:type
           rdf:resource="http://purl.org/dc/dcmitype/StillImage" />
        <dc:title></dc:title>
      </cc:Work>
    </rdf:RDF>
  </metadata>
  <g
     inkscape:label="Layer 1"
     inkscape:groupmode="layer"
     id="layer1"
     transform="translate(-15.717619,-13.362418)">
    <g
       id="g4599-5-4"
       transform="matrix(0.15282387,0,0,0.15282387,-173.97453,-1.1133854)"
       style="fill:#4f5d99;fill-opacity:1">
      <path
         inkscape:connector-curvature="0"
         id="path4488-2-3-2"
         d="m 1303.9423,179.81316 c -11.596,4.89073 -24.3662,4.66275 -35.6428,-0.63619 -5.8035,-2.72707 -10.8663,-6.73236 -15.221,-12.0415 -1.708,-2.0822 -5.4572,-8.57587 -6.4064,-11.096 -4.4039,-11.69155 -3.8703,-23.9227 1.5208,-34.86333 2.8118,-5.7059 6.619,-10.39947 12.052,-14.85749 2.0642,-1.69386 7.8214,-5.01346 10.5153,-6.06328 5.4324,-2.116927 11.02,-3.142887 16.6479,-3.056857 12.9738,0.19845 24.9695,6.103927 33.204,16.346287 1.2114,1.50657 1.8661,2.50132 3.4353,5.21937 1.5694,2.71799 2.1034,3.78232 2.8026,5.58464 4.7543,12.2565 3.8712,25.59018 -2.4459,36.92879 -2.7115,4.86683 -6.4594,9.27868 -10.9045,12.83598 -1.9797,1.58436 -7.2449,4.72424 -9.5573,5.69958 z m 5.1569,-11.2409 c 6.7387,-5.33509 11.2298,-12.59636 12.9793,-20.98498 0.2341,-1.12282 0.4,-2.08734 0.3686,-2.14331 -0.033,-0.0557 -5.018,2.73543 -11.0814,6.2031 l -11.024,6.30489 -0.9599,-0.0297 c -2.4524,-0.0761 -3.907,-2.48121 -2.8438,-4.70235 l 0.3103,-0.64823 12.9545,-7.57672 12.9547,-7.57666 -0.19,-1.6299 c -0.3407,-2.92172 -1.4523,-7.04974 -2.5978,-9.64563 l -0.4237,-0.96038 -9.4929,5.42042 c -10.6136,6.06037 -10.0184,5.79214 -11.6686,5.25789 -1.8652,-0.60382 -2.6793,-2.62924 -1.7973,-4.47185 l 0.3102,-0.64824 9.6745,-5.63827 9.6744,-5.63825 -0.6239,-0.85245 c -1.6797,-2.29562 -4.6961,-5.32037 -7.0583,-7.07779 l -1.3166,-0.97954 -15.5215,8.86405 -15.5214,8.86401 -0.7902,-0.1017 c -2.1063,-0.27116 -3.3692,-2.03273 -2.9292,-4.08585 0.1083,-0.50406 0.3748,-1.06221 0.6342,-1.32624 0.2873,-0.29279 5.2139,-3.20809 13.7695,-8.14845 7.3272,-4.23089 13.2932,-7.74153 13.2577,-7.80144 -0.035,-0.0602 -0.9556,-0.40222 -2.0452,-0.76084 -7.821,-2.57427 -15.9973,-2.42857 -23.9396,0.42657 -1.9732,0.70938 -6.8438,3.35423 -8.6737,4.71012 -7.3573,5.45139 -12.4515,13.53262 -14.0954,22.36096 l -0.3047,1.63588 6.5881,-3.70628 6.588,-3.70627 0.9144,0.007 c 1.2623,0.01 2.4869,0.81315 2.9761,1.95236 0.4113,0.95761 0.4024,1.93789 -0.025,2.82373 l -0.322,0.66612 -8.4873,4.90006 -8.4871,4.90007 0.1151,1.13319 c 0.3484,3.4123 1.1699,6.50734 2.8029,10.56126 l 0.2691,0.66803 17.0695,-9.80254 c 19.0222,-10.92387 17.4169,-10.11547 19.0134,-9.57455 2.1999,0.74528 2.8596,3.38746 1.292,5.17407 -0.2924,0.33313 -4.9082,3.05814 -17.2422,10.17914 l -16.843,9.72431 0.4462,0.5697 c 2.6986,3.44599 4.9653,5.70205 7.7471,7.71061 l 0.9236,0.66681 10.4656,-6.04229 c 11.5861,-6.68934 11.4968,-6.64612 12.891,-6.23135 1.0475,0.31169 1.4535,0.61998 1.951,1.48153 0.5496,0.95188 0.5804,2.23368 0.076,3.17622 l -0.3518,0.65807 -9.0707,5.29256 -9.0706,5.2926 0.5826,0.26612 c 0.9879,0.45112 4.666,1.46946 6.5364,1.80972 6.6147,1.20317 13.7364,0.44357 20.111,-2.14503 2.3664,-0.96102 6.4492,-3.35966 8.5516,-5.02417 z"
         style="fill:#4f5d99;fill-opacity:1" />
    </g>
  </g>
</svg>
